<?xml version="1.0" encoding="UTF-8"?>
<svg xmlns="http://www.w3.org/2000/svg" xmlns:xlink="http://www.w3.org/1999/xlink" width="1280" height="720" viewBox="0 0 1280 720">
<defs>
<g>
<g id="glyph-0-0">
<path d="M 3.148438 -3.246094 L 3.148438 -2.605469 L 1.078125 -2.605469 L 0.773438 -1.09375 L 2.601562 -1.09375 C 2.199219 -0.648438 1.464844 -0.246094 0.398438 0.105469 L 0.671875 0.546875 C 1.875 0.09375 2.6875 -0.453125 3.125 -1.09375 L 3.148438 -1.09375 L 3.148438 0.671875 L 3.613281 0.671875 L 3.613281 -1.09375 L 5.535156 -1.09375 C 5.535156 -0.734375 5.511719 -0.488281 5.472656 -0.351562 C 5.421875 -0.207031 5.292969 -0.125 5.09375 -0.125 C 4.828125 -0.125 4.535156 -0.132812 4.226562 -0.148438 L 4.347656 0.308594 C 4.613281 0.3125 4.886719 0.320312 5.167969 0.320312 C 5.527344 0.3125 5.761719 0.199219 5.867188 -0.0273438 C 5.96875 -0.226562 6.019531 -0.726562 6.019531 -1.511719 L 3.613281 -1.511719 L 3.613281 -2.167969 L 5.785156 -2.167969 L 5.785156 -3.6875 L 0.925781 -3.6875 L 0.925781 -3.246094 Z M 3.148438 -2.167969 L 3.148438 -1.511719 L 1.339844 -1.511719 L 1.5 -2.167969 Z M 3.613281 -2.605469 L 3.613281 -3.246094 L 5.292969 -3.246094 L 5.292969 -2.605469 Z M 1.320312 -4.558594 L 1.726562 -4.558594 C 1.914062 -4.328125 2.074219 -4.085938 2.207031 -3.839844 L 2.640625 -4 C 2.539062 -4.171875 2.40625 -4.359375 2.238281 -4.558594 L 3.339844 -4.558594 L 3.339844 -4.980469 L 1.566406 -4.980469 C 1.625 -5.113281 1.6875 -5.246094 1.746094 -5.394531 L 1.285156 -5.492188 C 1.09375 -5 0.785156 -4.554688 0.359375 -4.148438 L 0.78125 -3.886719 C 0.980469 -4.09375 1.160156 -4.320312 1.320312 -4.558594 Z M 4.132812 -4.582031 L 4.59375 -4.582031 C 4.78125 -4.339844 4.945312 -4.09375 5.082031 -3.832031 L 5.507812 -3.992188 C 5.40625 -4.171875 5.273438 -4.367188 5.105469 -4.582031 L 6.3125 -4.582031 L 6.3125 -5 L 4.347656 -5 C 4.398438 -5.125 4.453125 -5.261719 4.5 -5.394531 L 4.039062 -5.492188 C 3.867188 -5 3.601562 -4.546875 3.226562 -4.140625 L 3.640625 -3.878906 C 3.828125 -4.09375 3.988281 -4.328125 4.132812 -4.582031 Z "/>
</g>
<g id="glyph-0-1">
<path d="M 3.125 -5.460938 L 3.125 -3.273438 L 1.878906 -3.273438 L 1.878906 -4.941406 L 1.394531 -4.941406 L 1.394531 -3.273438 L 0.375 -3.273438 L 0.375 -2.808594 L 3.167969 -2.808594 L 3.167969 -0.792969 L 3.648438 -0.792969 L 3.648438 -2.808594 L 6.292969 -2.808594 L 6.292969 -3.273438 L 3.613281 -3.273438 L 3.613281 -4.195312 L 5.632812 -4.195312 L 5.632812 -4.652344 L 3.613281 -4.652344 L 3.613281 -5.460938 Z M 5.300781 -2.320312 C 4.566406 -0.621094 3.046875 0.234375 0.738281 0.234375 L 0.914062 0.695312 C 3.285156 0.6875 4.898438 -0.238281 5.742188 -2.085938 Z M 1.972656 -2.507812 C 1.585938 -1.921875 1.105469 -1.40625 0.539062 -0.964844 L 0.839844 -0.578125 C 1.425781 -1.039062 1.914062 -1.578125 2.3125 -2.199219 Z "/>
</g>
<g id="glyph-1-0">
<path d="M 0.199219 -0.0742188 C 0.992188 -0.898438 1.53125 -1.503906 1.816406 -1.890625 C 2.101562 -2.277344 2.242188 -2.652344 2.242188 -3.019531 C 2.242188 -3.339844 2.15625 -3.585938 1.984375 -3.753906 C 1.808594 -3.921875 1.601562 -4.007812 1.359375 -4.007812 C 1.0625 -4.007812 0.824219 -3.898438 0.636719 -3.683594 C 0.535156 -3.5625 0.4375 -3.378906 0.34375 -3.132812 L 0.207031 -3.160156 C 0.3125 -3.660156 0.496094 -4.007812 0.757812 -4.199219 C 1.015625 -4.394531 1.292969 -4.492188 1.59375 -4.492188 C 1.960938 -4.492188 2.253906 -4.375 2.480469 -4.144531 C 2.707031 -3.914062 2.824219 -3.632812 2.824219 -3.296875 C 2.824219 -2.941406 2.699219 -2.597656 2.453125 -2.269531 C 2.207031 -1.9375 1.675781 -1.351562 0.855469 -0.507812 L 2.351562 -0.507812 C 2.558594 -0.507812 2.707031 -0.53125 2.789062 -0.582031 C 2.875 -0.632812 2.96875 -0.753906 3.078125 -0.949219 L 3.160156 -0.910156 L 2.800781 0 L 0.199219 0 Z "/>
</g>
</g>
</defs>
<g fill="rgb(100%, 100%, 100%)" fill-opacity="1">
<use xlink:href="#glyph-0-0" x="30" y="27.067383"/>
</g>
<g fill="rgb(100%, 100%, 100%)" fill-opacity="1">
<use xlink:href="#glyph-1-0" x="37" y="26.746094"/>
</g>
<g fill="rgb(100%, 100%, 100%)" fill-opacity="1">
<use xlink:href="#glyph-0-1" x="40" y="27.067383"/>
</g>
</svg>
